<svg xmlns="http://www.w3.org/2000/svg" viewBox="0 0 24 24" width="24" height="24">
  <path fill="#fff" d="M12 18c-1.6568542 0-3-1.3431458-3-3V11c0-1.65685425 1.3431458-3 3-3s3 1.34314575 3 3v4c0 1.6568542-1.3431458 3-3 3zm-2-7c0-.55228475.44771525-1 1-1s1 .44771525 1 1v4c0 .55228475-.44771525 1-1 1s-1-.44771525-1-1v-4zm4 0c0-.55228475.44771525-1 1-1s1 .44771525 1 1v4c0 .55228475-.44771525 1-1 1s-1-.44771525-1-1v-4z" />
  <path fill="#fff" d="M9 12V11c0-2.76142375 2.23857625-5 5-5s5 2.23857625 5 5v1h1c.5522847 0 1 .44771525 1 1v7c0 .5522847-.4477153 1-1 1H9c-.55228475 0-1-.4477153-1-1v-7c0-.55228475.44771525-1 1-1h1zm5 5c0 .5522847-.4477153 1-1 1s-1-.4477153-1-1v-3c0-.5522847.4477153-1 1-1s1 .4477153 1 1v3z" />
</svg>
